<?xml version="1.0" encoding="utf-8"?>
<!-- Generator: Adobe Illustrator 14.0.0, SVG Export Plug-In . SVG Version: 6.00 Build 43363)  -->
<!DOCTYPE svg PUBLIC "-//W3C//DTD SVG 1.1//EN" "http://www.w3.org/Graphics/SVG/1.1/DTD/svg11.dtd">
<svg version="1.1" id="Layer_1" xmlns="http://www.w3.org/2000/svg" xmlns:xlink="http://www.w3.org/1999/xlink" x="0px" y="0px"
	 width="180px" height="576px" viewBox="0 0 180 576" enable-background="new 0 0 180 576" xml:space="preserve">
<g>
	<path fill="#FFFFFF" d="M7.207,563.317v-47.813c0-14.922,3.516-26.719,10.547-35.391s17.501-13.008,31.406-13.008
		c5.625,0,10.898,1.036,15.82,3.105c4.922,2.07,9.141,4.903,12.656,8.496c3.516,3.594,6.134,7.657,7.852,12.188
		c1.329-6.405,3.926-12.012,7.793-16.816s8.75-8.496,14.648-11.074c5.899-2.578,12.48-3.867,19.746-3.867
		c9.688,0,17.891,2.129,24.609,6.387c6.72,4.259,11.817,10.313,15.293,18.164c3.478,7.852,5.215,17.129,5.215,27.832v51.797H7.207z
		 M81.738,509.763c0-5.937-1.289-11.327-3.867-16.172c-2.578-4.844-6.308-8.672-11.191-11.484
		c-4.882-2.813-10.565-4.219-17.051-4.219c-10.468,0-18.398,3.204-23.789,9.609c-5.391,6.406-8.086,15.703-8.086,27.891v36.328
		h63.984V509.763z M161.777,511.403c0-13.516-2.969-23.711-8.906-30.586c-5.937-6.874-14.726-10.313-26.367-10.313
		c-7.031,0-13.144,1.388-18.34,4.16c-5.195,2.773-9.199,6.778-12.012,12.012c-2.813,5.234-4.219,11.445-4.219,18.633v46.406h69.844
		V511.403z"/>
	<path fill="#FFFFFF" d="M7.207,517.116v-43.945c0-10.781,1.778-20.273,5.332-28.477c3.556-8.203,8.73-14.57,15.527-19.102
		c6.797-4.53,14.961-6.797,24.492-6.797c11.25,0,20.528,3.164,27.832,9.492c7.306,6.328,12.169,15.157,14.59,26.484l77.813-45.82
		v13.008L96.27,466.022c0.313,4.688,0.469,8.555,0.469,11.602v27.891h76.055v11.602H7.207z M87.012,472.233
		c-0.156-13.516-3.164-23.887-9.023-31.113c-5.859-7.226-14.297-10.84-25.313-10.84c-11.093,0-19.706,3.77-25.84,11.309
		c-6.132,7.54-9.199,18.028-9.199,31.465v32.461h69.375V472.233z"/>
	<path fill="#FFFFFF" d="M7.207,445.161V433.56h165.586v11.602H7.207z"/>
	<path fill="#FFFFFF" d="M163.828,440.732c-7.07,11.016-16.973,19.336-29.707,24.961c-12.733,5.625-27.539,8.438-44.414,8.438
		c-16.952,0-31.758-2.831-44.414-8.496c-12.656-5.664-22.441-14.081-29.355-25.254c-6.914-11.172-10.371-24.804-10.371-40.898
		c0-16.249,3.633-29.805,10.898-40.664c7.266-10.858,18.243-19.219,32.93-25.078l4.336,10.43
		c-12.968,4.688-22.539,11.583-28.711,20.684c-6.171,9.102-9.258,20.684-9.258,34.746c0,13.672,2.988,25.215,8.965,34.629
		c5.977,9.415,14.454,16.505,25.43,21.27c10.977,4.766,24.005,7.148,39.082,7.148c14.454,0,27.266-2.187,38.438-6.563
		c11.173-4.375,20-11.191,26.484-20.449c6.485-9.258,9.727-20.878,9.727-34.863c0-14.608-3.534-26.699-10.605-36.27
		c-7.07-9.569-17.479-16.348-31.23-20.332l-23.555-0.234v41.484h-9.609v-52.852h83.906v9.492l-31.875,0.82
		c10.859,5.859,19.16,13.634,24.902,23.32c5.742,9.688,8.613,21.211,8.613,34.57C174.434,416.397,170.899,429.717,163.828,440.732z"
		/>
	<path fill="#FFFFFF" d="M7.207,368.561v-11.602h76.758v-91.641H7.207v-11.484h165.586v11.484H94.746v91.641h78.047v11.602H7.207z"
		/>
	<path fill="#FFFFFF" d="M17.637,240.755v59.883H7.207V169.622h10.43v59.648h155.156v11.484H17.637z"/>
	<path fill="#FFFFFF" d="M168.984,211.22c-3.476,7.893-8.555,14.436-15.234,19.629c-6.68,5.197-14.667,8.576-23.965,10.137
		l-2.695-11.484c7.734-1.172,14.375-3.768,19.922-7.793c5.548-4.021,9.746-9.178,12.598-15.469
		c2.853-6.287,4.277-13.377,4.277-21.27c0-7.889-1.504-14.883-4.512-20.977c-3.007-6.094-7.167-10.818-12.48-14.18
		c-5.313-3.357-11.25-5.039-17.813-5.039c-7.031,0-12.93,1.875-17.695,5.625c-4.765,3.75-8.594,8.4-11.484,13.945
		c-2.89,5.549-6.133,12.971-9.727,22.266c-3.827,9.924-7.304,17.834-10.43,23.73c-3.124,5.9-7.383,10.898-12.773,15
		s-12.147,6.152-20.273,6.152c-8.046,0-15.194-1.992-21.445-5.977c-6.25-3.984-11.093-9.393-14.531-16.23
		c-3.437-6.834-5.156-14.473-5.156-22.91c0-10.313,2.109-19.256,6.328-26.836c4.219-7.576,10.743-13.904,19.57-18.984l5.977,9.609
		c-7.343,4.143-12.753,9.182-16.23,15.117c-3.476,5.939-5.215,13.088-5.215,21.445c0,6.252,1.309,11.916,3.926,16.992
		c2.618,5.08,6.231,9.064,10.84,11.953c4.61,2.893,9.767,4.336,15.469,4.336c6.172,0,11.349-1.736,15.527-5.215
		c4.18-3.475,7.559-7.771,10.137-12.891c2.578-5.115,5.586-12.129,9.023-21.035c4.063-10.389,7.774-18.709,11.133-24.961
		c3.359-6.248,7.988-11.58,13.887-15.996c5.899-4.412,13.341-6.621,22.324-6.621c8.906,0,16.856,2.268,23.848,6.797
		c6.992,4.533,12.422,10.744,16.289,18.633c3.867,7.893,5.801,16.721,5.801,26.484C174.199,194.659,172.462,203.331,168.984,211.22z
		"/>
	<path fill="#FFFFFF" d="M7.207,179.735v-11.602h165.586v11.602H7.207z"/>
	<path fill="#FFFFFF" d="M7.207,203.745v-43.594c0-17.969,3.263-33.223,9.785-45.762c6.524-12.539,16.055-22.031,28.594-28.477
		s27.755-9.668,45.645-9.668c17.267,0,31.992,3.262,44.18,9.785s21.465,16.074,27.832,28.652
		c6.368,12.578,9.551,27.813,9.551,45.703v43.359H7.207z M162.129,161.44c0-23.594-6.016-41.758-18.047-54.492
		c-12.03-12.734-29.805-19.102-53.32-19.102c-24.218,0-42.422,6.055-54.609,18.164s-18.281,30.234-18.281,54.375v31.758h144.258
		V161.44z"/>
	<path fill="#FFFFFF" d="M7.207,120.261V12.683h10.664v95.977h66.328V23.112h10.664v85.547h66.914V12.683h11.016v107.578H7.207z"/>
</g>
</svg>
