<?xml version="1.0" encoding="utf-8"?>
<!-- Generator: Adobe Illustrator 14.0.0, SVG Export Plug-In . SVG Version: 6.00 Build 43363)  -->
<!DOCTYPE svg PUBLIC "-//W3C//DTD SVG 1.1//EN" "http://www.w3.org/Graphics/SVG/1.1/DTD/svg11.dtd">
<svg version="1.1" id="Layer_1" xmlns="http://www.w3.org/2000/svg" xmlns:xlink="http://www.w3.org/1999/xlink" x="0px" y="0px"
	 width="576px" height="180px" viewBox="0 0 576 180" enable-background="new 0 0 576 180" xml:space="preserve">
<g>
	<path d="M12.683,7.207h47.813c14.922,0,26.719,3.516,35.391,10.547s13.008,17.501,13.008,31.406c0,5.625-1.036,10.898-3.105,15.82
		c-2.07,4.922-4.903,9.141-8.496,12.656c-3.594,3.516-7.657,6.134-12.188,7.852c6.405,1.329,12.012,3.926,16.816,7.793
		s8.496,8.75,11.074,14.648c2.578,5.899,3.867,12.48,3.867,19.746c0,9.688-2.129,17.891-6.387,24.609
		c-4.259,6.72-10.313,11.817-18.164,15.293c-7.852,3.478-17.129,5.215-27.832,5.215H12.683V7.207z M66.237,81.738
		c5.937,0,11.327-1.289,16.172-3.867c4.844-2.578,8.672-6.308,11.484-11.191c2.813-4.882,4.219-10.565,4.219-17.051
		c0-10.468-3.204-18.398-9.609-23.789c-6.406-5.391-15.703-8.086-27.891-8.086H24.284v63.984H66.237z M64.597,161.777
		c13.516,0,23.711-2.969,30.586-8.906c6.874-5.937,10.313-14.726,10.313-26.367c0-7.031-1.388-13.144-4.16-18.34
		c-2.773-5.195-6.778-9.199-12.012-12.012c-5.234-2.813-11.445-4.219-18.633-4.219H24.284v69.844H64.597z"/>
	<path d="M58.884,7.207h43.945c10.781,0,20.273,1.778,28.477,5.332c8.203,3.556,14.57,8.73,19.102,15.527
		c4.53,6.797,6.797,14.961,6.797,24.492c0,11.25-3.164,20.528-9.492,27.832c-6.328,7.306-15.157,12.169-26.484,14.59l45.82,77.813
		H154.04L109.978,96.27c-4.688,0.313-8.555,0.469-11.602,0.469H70.485v76.055H58.884V7.207z M103.767,87.012
		c13.516-0.156,23.887-3.164,31.113-9.023c7.226-5.859,10.84-14.297,10.84-25.313c0-11.093-3.77-19.706-11.309-25.84
		c-7.54-6.132-18.028-9.199-31.465-9.199H70.485v69.375H103.767z"/>
	<path d="M130.839,7.207h11.602v165.586h-11.602V7.207z"/>
	<path d="M135.268,163.828c-11.016-7.07-19.336-16.973-24.961-29.707c-5.625-12.733-8.438-27.539-8.438-44.414
		c0-16.952,2.831-31.758,8.496-44.414c5.664-12.656,14.081-22.441,25.254-29.355c11.172-6.914,24.804-10.371,40.898-10.371
		c16.249,0,29.805,3.633,40.664,10.898c10.858,7.266,19.219,18.243,25.078,32.93l-10.43,4.336
		c-4.688-12.968-11.583-22.539-20.684-28.711c-9.102-6.171-20.684-9.258-34.746-9.258c-13.672,0-25.215,2.988-34.629,8.965
		c-9.415,5.977-16.505,14.454-21.27,25.43c-4.766,10.977-7.148,24.005-7.148,39.082c0,14.454,2.187,27.266,6.563,38.438
		c4.375,11.173,11.191,20,20.449,26.484c9.258,6.485,20.878,9.727,34.863,9.727c14.608,0,26.699-3.534,36.27-10.605
		c9.569-7.07,16.348-17.479,20.332-31.23l0.234-23.555H190.58v-9.609h52.852v83.906h-9.492l-0.82-31.875
		c-5.859,10.859-13.634,19.16-23.32,24.902c-9.688,5.742-21.211,8.613-34.57,8.613C159.603,174.434,146.283,170.899,135.268,163.828
		z"/>
	<path d="M207.439,7.207h11.602v76.758h91.641V7.207h11.484v165.586h-11.484V94.746h-91.641v78.047h-11.602V7.207z"/>
	<path d="M335.245,17.637h-59.883V7.207h131.016v10.43h-59.648v155.156h-11.484V17.637z"/>
	<path d="M364.78,168.984c-7.893-3.476-14.436-8.555-19.629-15.234c-5.197-6.68-8.576-14.667-10.137-23.965l11.484-2.695
		c1.172,7.734,3.768,14.375,7.793,19.922c4.021,5.548,9.178,9.746,15.469,12.598c6.287,2.853,13.377,4.277,21.27,4.277
		c7.889,0,14.883-1.504,20.977-4.512c6.094-3.007,10.818-7.167,14.18-12.48c3.357-5.313,5.039-11.25,5.039-17.813
		c0-7.031-1.875-12.93-5.625-17.695c-3.75-4.765-8.4-8.594-13.945-11.484c-5.549-2.89-12.971-6.133-22.266-9.727
		c-9.924-3.827-17.834-7.304-23.73-10.43c-5.9-3.124-10.898-7.383-15-12.773s-6.152-12.147-6.152-20.273
		c0-8.046,1.992-15.194,5.977-21.445c3.984-6.25,9.393-11.093,16.23-14.531c6.834-3.437,14.473-5.156,22.91-5.156
		c10.313,0,19.256,2.109,26.836,6.328c7.576,4.219,13.904,10.743,18.984,19.57l-9.609,5.977c-4.143-7.343-9.182-12.753-15.117-16.23
		c-5.939-3.476-13.088-5.215-21.445-5.215c-6.252,0-11.916,1.309-16.992,3.926c-5.08,2.618-9.064,6.231-11.953,10.84
		c-2.893,4.61-4.336,9.767-4.336,15.469c0,6.172,1.736,11.349,5.215,15.527c3.475,4.18,7.771,7.559,12.891,10.137
		c5.115,2.578,12.129,5.586,21.035,9.023c10.389,4.063,18.709,7.774,24.961,11.133c6.248,3.359,11.58,7.988,15.996,13.887
		c4.412,5.899,6.621,13.341,6.621,22.324c0,8.906-2.268,16.856-6.797,23.848c-4.533,6.992-10.744,12.422-18.633,16.289
		c-7.893,3.867-16.721,5.801-26.484,5.801C381.341,174.199,372.669,172.462,364.78,168.984z"/>
	<path d="M396.265,7.207h11.602v165.586h-11.602V7.207z"/>
	<path d="M372.255,7.207h43.594c17.969,0,33.223,3.263,45.762,9.785c12.539,6.524,22.031,16.055,28.477,28.594
		s9.668,27.755,9.668,45.645c0,17.267-3.262,31.992-9.785,44.18s-16.074,21.465-28.652,27.832
		c-12.578,6.368-27.813,9.551-45.703,9.551h-43.359V7.207z M414.56,162.129c23.594,0,41.758-6.016,54.492-18.047
		c12.734-12.03,19.102-29.805,19.102-53.32c0-24.218-6.055-42.422-18.164-54.609s-30.234-18.281-54.375-18.281h-31.758v144.258
		H414.56z"/>
	<path d="M455.739,7.207h107.578v10.664h-95.977v66.328h85.547v10.664h-85.547v66.914h95.977v11.016H455.739V7.207z"/>
</g>
</svg>
