<?xml version="1.0" encoding="utf-8"?>
<!-- Generator: Adobe Illustrator 14.0.0, SVG Export Plug-In . SVG Version: 6.00 Build 43363)  -->
<!DOCTYPE svg PUBLIC "-//W3C//DTD SVG 1.1//EN" "http://www.w3.org/Graphics/SVG/1.1/DTD/svg11.dtd">
<svg version="1.1" id="BRIGHTSIDE" xmlns="http://www.w3.org/2000/svg" xmlns:xlink="http://www.w3.org/1999/xlink" x="0px" y="0px"
	 width="123px" height="918px" viewBox="397.5 -397.5 123 918" enable-background="new 397.5 -397.5 123 918" xml:space="preserve">
<g>
	<path fill="#FFFFFF" d="M399.474,520.113v-52.001c0-12.479,2.56-20.64,8.48-27.521c5.76-6.561,14.081-10.561,22.241-10.561
		c9.92,0,16.64,4.48,24,16c7.679-13.279,16.799-19.359,28.32-19.359c9.44,0,19.201,4.479,25.121,11.521
		c5.92,7.04,8.479,16,8.479,29.44v52.48H399.474z M445.875,496.112v-26.081c0-11.199-4.48-16.96-13.28-16.96
		c-8.64,0-13.12,5.761-13.12,16.96v26.081H445.875z M496.116,496.112v-28.641c0-11.68-5.12-17.76-15.041-17.76
		c-10.08,0-15.2,6.08-15.2,17.76v28.641H496.116z"/>
	<path fill="#FFFFFF" d="M516.116,395.315v24H399.474v-62.562c0-9.92,2.56-17.28,8-22.562c5.76-5.6,14.24-8.8,23.521-8.8
		c14.24,0,23.681,6.56,28.801,19.68c6.399-14.88,8-15.52,42.4-16.159c5.12,0,7.52-1.44,9.6-5.12h4.32v25.76
		c-5.602,2.88-8.96,3.521-20,3.521c-1.761,0-4.641,0-7.682-0.159h-4.799c-9.602,0-13.762,4.479-13.762,14.88v27.521L516.116,395.315
		L516.116,395.315z M449.875,366.354c0-6.88-0.8-9.92-3.04-12.641c-2.4-2.88-6.88-4.32-12.48-4.32c-5.44,0-9.44,1.44-11.84,4.32
		c-2.4,3.04-3.04,5.76-3.04,12.641v28.96h30.4V366.354z"/>
	<path fill="#FFFFFF" d="M516.117,285.718l-0.001,24H399.474v-24H516.117z"/>
	<path fill="#FFFFFF" d="M516.438,166.355v14.4l-15.36,2.88c13.12,8.96,18.72,19.52,18.72,35.201
		c0,31.521-25.76,54.561-61.121,54.561c-36.321,0-61.121-22.88-61.121-56.48c0-28.161,15.04-47.682,39.201-50.563v22.561
		c-6.08,2.08-8.8,3.841-11.68,7.2c-4.64,5.28-7.04,12.32-7.04,20.642c0,20.479,15.2,32.641,40.321,32.641
		c24,0,40.96-13.76,40.96-33.281c0-9.12-4.16-18.081-11.2-23.84c-4.16-3.52-8.16-5.12-14.72-5.76v26.561h-20.003v-46.721
		L516.438,166.355L516.438,166.355z"/>
	<path fill="#FFFFFF" d="M463.156,125.558h52.961v24H399.474v-24h43.681V79.477h-43.681V55.315h116.644v24.001h-52.961V125.558z"/>
	<path fill="#FFFFFF" d="M516.117-13.48v24h-96.643v35.361h-20v-93.442h20v34.081H516.117z"/>
	<path fill="#FFFFFF" d="M434.995-121.16c-11.84,0.801-18.24,9.279-18.24,24.479c0,12.48,5.6,20.161,14.4,20.161
		c8.48,0,11.84-4.96,15.2-22.081l3.52-18.24c4.16-21.601,13.76-30.881,32.162-30.881c23.841,0,37.761,17.761,37.761,47.842
		c0,29.762-13.6,46.881-38.561,48.32v-23.36c12.48-0.8,19.359-9.92,19.359-26.239c0-14.562-5.92-23.521-15.681-23.521
		c-9.438,0-13.92,5.92-16.96,21.92l-3.199,16.32c-4.479,23.681-13.281,32.801-31.361,32.801c-22.721,0-35.841-16.16-35.841-44.161
		c0-29.439,13.28-45.601,37.44-45.761L434.995-121.16L434.995-121.16z"/>
	<path fill="#FFFFFF" d="M516.117-184.038v24.002H399.474v-24.002H516.117z"/>
	<path fill="#FFFFFF" d="M399.474-198.757v-45.602c0-17.92,4-28.961,13.44-36.961c11.04-9.12,26.72-14.08,44.801-14.08
		c18.24,0,33.922,4.96,44.801,14.08c9.44,8,13.602,19.201,13.602,36.961v45.602H399.474z M496.117-244.358
		c0-18.08-12.641-27.04-38.242-27.04c-25.761,0-38.401,8.96-38.401,27.04v21.601h76.643V-244.358z"/>
	<path fill="#FFFFFF" d="M496.117-333.795v-63.202h20v87.202H399.474v-84.32h20v60.32h26.4v-55.842h20v55.842H496.117z"/>
</g>
</svg>
