<?xml version="1.0" encoding="utf-8"?>
<!-- Generator: Adobe Illustrator 14.0.0, SVG Export Plug-In . SVG Version: 6.00 Build 43363)  -->
<!DOCTYPE svg PUBLIC "-//W3C//DTD SVG 1.1//EN" "http://www.w3.org/Graphics/SVG/1.1/DTD/svg11.dtd">
<svg version="1.1" id="BRIGHTSIDE" xmlns="http://www.w3.org/2000/svg" xmlns:xlink="http://www.w3.org/1999/xlink" x="0px" y="0px"
	 width="918px" height="123px" viewBox="0 0 918 123" enable-background="new 0 0 918 123" xml:space="preserve">
<g>
	<path fill="#FFFFFF" d="M0.12,2.357h52.001c12.48,0,20.64,2.56,27.521,8.48c6.56,5.76,10.56,14.081,10.56,22.241
		c0,9.92-4.48,16.64-16,24c13.28,7.68,19.36,16.8,19.36,28.321c0,9.44-4.48,19.2-11.521,25.12c-7.04,5.92-16,8.48-29.44,8.48H0.12
		V2.357z M24.121,48.758h26.081c11.2,0,16.96-4.48,16.96-13.28c0-8.64-5.76-13.12-16.96-13.12H24.121V48.758z M24.121,99h28.641
		c11.68,0,17.76-5.12,17.76-15.041c0-10.08-6.08-15.2-17.76-15.2H24.121V99z"/>
	<path fill="#FFFFFF" d="M124.918,119h-24V2.357h62.562c9.92,0,17.28,2.56,22.561,8c5.6,5.76,8.8,14.24,8.8,23.521
		c0,14.24-6.56,23.681-19.68,28.801c14.88,6.4,15.52,8,16.16,42.401c0,5.12,1.44,7.52,5.12,9.6V119h-25.76
		c-2.88-5.601-3.521-8.96-3.521-20c0-1.761,0-4.641,0.16-7.681v-4.8c0-9.601-4.48-13.761-14.88-13.761h-27.521V119z M153.879,52.758
		c6.88,0,9.92-0.8,12.641-3.04c2.88-2.4,4.32-6.88,4.32-12.48c0-5.44-1.44-9.44-4.32-11.84c-3.04-2.4-5.76-3.04-12.641-3.04h-28.96
		v30.4H153.879z"/>
	<path fill="#FFFFFF" d="M234.516,119h-24V2.357h24V119z"/>
	<path fill="#FFFFFF" d="M353.878,119.32h-14.4l-2.88-15.36c-8.96,13.12-19.52,18.72-35.201,18.72
		c-31.521,0-54.561-25.76-54.561-61.121c0-36.321,22.88-61.121,56.481-61.121c28.161,0,47.681,15.04,50.562,39.201h-22.561
		c-2.08-6.08-3.84-8.8-7.2-11.68c-5.28-4.64-12.32-7.04-20.641-7.04c-20.48,0-32.641,15.2-32.641,40.321
		c0,24,13.76,40.96,33.281,40.96c9.12,0,18.081-4.16,23.84-11.2c3.52-4.16,5.12-8.16,5.76-14.72h-26.561V56.278h46.721V119.32z"/>
	<path fill="#FFFFFF" d="M394.676,66.039V119h-24V2.357h24v43.681h46.081V2.357h24.161V119h-24.001V66.039H394.676z"/>
	<path fill="#FFFFFF" d="M533.714,119h-24V22.358h-35.361v-20h93.442v20h-34.081V119z"/>
	<path fill="#FFFFFF" d="M641.394,37.878c-0.801-11.84-9.28-18.24-24.48-18.24c-12.48,0-20.161,5.6-20.161,14.4
		c0,8.48,4.96,11.84,22.081,15.2l18.24,3.52c21.601,4.16,30.881,13.76,30.881,32.161c0,23.841-17.761,37.761-47.842,37.761
		c-29.761,0-46.881-13.6-48.32-38.561h23.36c0.8,12.48,9.92,19.36,26.24,19.36c14.561,0,23.521-5.92,23.521-15.681
		c0-9.439-5.92-13.92-21.92-16.96l-16.32-3.2c-23.681-4.479-32.801-13.28-32.801-31.36c0-22.721,16.16-35.841,44.161-35.841
		c29.44,0,45.601,13.28,45.761,37.44H641.394z"/>
	<path fill="#FFFFFF" d="M704.271,119h-24.001V2.357h24.001V119z"/>
	<path fill="#FFFFFF" d="M718.99,2.357h45.602c17.92,0,28.961,4,36.961,13.44c9.12,11.04,14.08,26.72,14.08,44.801
		c0,18.24-4.96,33.921-14.08,44.801c-8,9.44-19.201,13.601-36.961,13.601H718.99V2.357z M764.592,99
		c18.08,0,27.04-12.641,27.04-38.241c0-25.761-8.96-38.401-27.04-38.401h-21.601V99H764.592z"/>
	<path fill="#FFFFFF" d="M854.028,99h63.202v20h-87.202V2.357h84.321v20h-60.321v26.4h55.842v20h-55.842V99z"/>
</g>
</svg>
