<?xml version="1.0" standalone="no"?>
<!DOCTYPE svg PUBLIC "-//W3C//DTD SVG 20010904//EN"
 "http://www.w3.org/TR/2001/REC-SVG-20010904/DTD/svg10.dtd">
<svg version="1.0" xmlns="http://www.w3.org/2000/svg"
 width="256.000000pt" height="256.000000pt" viewBox="0 0 256.000000 256.000000"
 preserveAspectRatio="xMidYMid meet">
<metadata>
Created by potrace 1.11, written by Peter Selinger 2001-2013
</metadata>
<g transform="translate(0.000000,256.000000) scale(0.100000,-0.100000)"
fill="#000000" stroke="none">
<path d="M1257 2178 c-8 -12 -24 -41 -37 -63 -12 -22 -31 -53 -40 -70 -69
-119 -183 -321 -262 -465 -11 -19 -29 -51 -40 -70 -87 -148 -176 -363 -194
-470 -8 -52 -8 -184 0 -219 46 -195 159 -328 356 -415 73 -32 131 -43 232 -44
122 -1 212 19 315 69 78 38 76 37 154 108 64 58 122 160 135 236 10 52 9 207
-1 265 -25 151 -124 368 -292 645 -60 99 -116 191 -124 205 -8 14 -16 27 -19
30 -3 3 -15 23 -27 45 -12 22 -48 84 -81 138 -59 97 -61 98 -75 75z"/>
</g>
</svg>
