<?xml version="1.0" encoding="utf-8"?>
<!-- Generator: Adobe Illustrator 14.0.0, SVG Export Plug-In . SVG Version: 6.00 Build 43363)  -->
<!DOCTYPE svg PUBLIC "-//W3C//DTD SVG 1.1//EN" "http://www.w3.org/Graphics/SVG/1.1/DTD/svg11.dtd">
<svg version="1.1" id="Layer_1" xmlns="http://www.w3.org/2000/svg" xmlns:xlink="http://www.w3.org/1999/xlink" x="0px" y="0px"
	 width="415.781px" height="122.398px" viewBox="0 0 415.781 122.398" enable-background="new 0 0 415.781 122.398"
	 xml:space="preserve">
<g>
	<path fill="#FFFFFF" d="M8.352,86.976c0-19.584,16.127-35.136,36.287-35.136c8.352,0,16.271,2.88,22.463,7.775
		c1.44,1.009,1.728,3.168,0.432,4.752c-1.152,1.296-3.168,1.729-4.752,0.576c-5.04-4.031-11.375-6.336-18.144-6.336
		c-16.416,0-29.375,12.816-29.375,28.368c0,15.839,12.96,28.511,29.375,28.511c6.768,0,13.104-2.304,18.144-6.191
		c1.584-1.152,3.6-0.721,4.752,0.576c1.296,1.584,1.008,3.743-0.72,5.039c-5.904,4.608-13.823,7.488-22.175,7.488
		C24.479,122.398,8.352,106.847,8.352,86.976z"/>
	<path fill="#FFFFFF" d="M103.449,51.84c18.576,0,33.407,16.128,33.407,35.279s-14.832,35.279-33.407,35.279
		c-18.432,0-33.408-16.128-33.408-35.279S85.017,51.84,103.449,51.84z M103.449,115.486c14.399,0,26.495-12.672,26.495-28.367
		s-12.096-28.512-26.495-28.512c-14.4,0-26.496,12.816-26.496,28.512S89.049,115.486,103.449,115.486z"/>
	<path fill="#FFFFFF" d="M196.458,80.64c0-11.952-9.647-21.744-21.743-21.744c-11.952,0-21.6,9.792-21.888,21.744v38.303v0.576
		c-0.144,0.576-0.288,1.152-0.72,1.584c-0.576,0.864-1.584,1.296-2.592,1.296h-0.864c-1.008-0.288-1.872-1.008-2.304-1.872
		c-0.144-0.144-0.144-0.288-0.144-0.432c0-0.145-0.144-0.288-0.144-0.288v-0.864V80.64v-1.152V55.439
		c0-1.872,1.44-3.456,3.456-3.456c1.872,0,3.312,1.584,3.312,3.456v6.769c5.184-6.192,13.104-10.225,21.888-10.225
		c15.839,0,28.655,12.96,28.655,28.656v38.303c0,2.016-1.584,3.456-3.456,3.456s-3.456-1.44-3.456-3.456V80.64z"/>
	<path fill="#FFFFFF" d="M238.39,55.296c0,1.728-1.728,3.456-3.456,3.456h-9.072v51.406c0,3.456,3.456,5.185,5.184,5.185
		s3.6,1.872,3.6,3.6c0,1.729-1.872,3.456-3.6,3.456c-7.056,0-12.384-5.184-12.384-12.24V58.752h-8.784
		c-3.456,0-3.456-1.729-3.456-3.456c0-1.729,0-3.456,3.456-3.456h8.784V25.633c0-1.729,1.728-3.457,3.456-3.457
		c1.872,0,3.744,1.729,3.744,3.457V51.84h9.072C236.662,51.84,238.39,53.567,238.39,55.296z"/>
	<path fill="#FFFFFF" d="M307.379,55.296v63.646c0,1.872-1.584,3.456-3.456,3.456s-3.456-1.584-3.456-3.456v-10.512
		c-6.048,8.352-15.696,13.968-26.495,13.968c-18.576,0-33.408-15.983-33.408-35.279s14.832-35.279,33.408-35.279
		c10.799,0,20.447,5.472,26.495,13.823V55.296c0-2.017,1.584-3.456,3.456-3.456S307.379,53.279,307.379,55.296z M300.467,87.119
		c0-15.84-11.952-28.512-26.495-28.512c-14.4,0-26.496,12.672-26.496,28.512s12.096,28.367,26.496,28.367
		C288.515,115.486,300.467,102.959,300.467,87.119z"/>
	<path fill="#FFFFFF" d="M315.586,86.976c0-19.584,16.127-35.136,36.287-35.136c8.352,0,16.271,2.88,22.463,7.775
		c1.44,1.009,1.728,3.168,0.432,4.752c-1.152,1.296-3.168,1.729-4.752,0.576c-5.04-4.031-11.375-6.336-18.144-6.336
		c-16.416,0-29.375,12.816-29.375,28.368c0,15.839,12.96,28.511,29.375,28.511c6.768,0,13.104-2.304,18.144-6.191
		c1.584-1.152,3.6-0.721,4.752,0.576c1.296,1.584,1.008,3.743-0.72,5.039c-5.904,4.608-13.823,7.488-22.175,7.488
		C331.714,122.398,315.586,106.847,315.586,86.976z"/>
	<path fill="#FFFFFF" d="M410.597,55.296c0,1.728-1.728,3.456-3.456,3.456h-9.072v51.406c0,3.456,3.456,5.185,5.184,5.185
		s3.6,1.872,3.6,3.6c0,1.729-1.872,3.456-3.6,3.456c-7.056,0-12.384-5.184-12.384-12.24V58.752h-8.784
		c-3.456,0-3.456-1.729-3.456-3.456c0-1.729,0-3.456,3.456-3.456h8.784V25.633c0-1.729,1.728-3.457,3.456-3.457
		c1.872,0,3.744,1.729,3.744,3.457V51.84h9.072C408.869,51.84,410.597,53.567,410.597,55.296z"/>
</g>
</svg>
