<?xml version="1.0" encoding="utf-8"?>
<!-- Generator: Adobe Illustrator 14.0.0, SVG Export Plug-In . SVG Version: 6.00 Build 43363)  -->
<!DOCTYPE svg PUBLIC "-//W3C//DTD SVG 1.1//EN" "http://www.w3.org/Graphics/SVG/1.1/DTD/svg11.dtd">
<svg version="1.1" id="Layer_1" xmlns="http://www.w3.org/2000/svg" xmlns:xlink="http://www.w3.org/1999/xlink" x="0px" y="0px"
	 width="564.256px" height="122.398px" viewBox="0 0 564.256 122.398" enable-background="new 0 0 564.256 122.398"
	 xml:space="preserve">
<g>
	<path fill="#FFFFFF" d="M114.334,80.64c-0.288-11.952-9.792-21.888-21.888-21.888c-11.952,0-21.744,9.936-21.744,21.888v38.447
		v0.432c0,0.144-0.144,0.288-0.144,0.288v0.288c-0.288,0.863-1.008,1.439-1.728,1.872c-0.576,0.288-1.152,0.432-1.728,0.432h-0.432
		h-0.288c-0.144,0-0.288-0.144-0.288-0.144c-0.288,0-0.576-0.288-0.864-0.433c-0.144,0-0.288-0.144-0.432-0.288l-0.432-0.432
		c-0.144-0.145-0.144-0.288-0.288-0.288c0-0.144,0-0.144-0.144-0.288c0,0,0-0.144-0.144-0.288c0-0.144,0-0.288-0.144-0.432v-0.433
		v-0.287V80.64c0-11.952-9.648-21.888-21.744-21.888S20.16,68.688,20.16,80.64v38.447c0,1.151-0.576,2.159-1.584,2.735
		c-0.144,0.145-0.576,0.433-0.864,0.433c-0.144,0.144-0.288,0.144-0.576,0.144h-0.432h-0.432c-1.296-0.144-2.448-1.296-2.88-2.592
		v-0.72V80.64v-1.152V55.296c0-1.872,1.584-3.313,3.312-3.313c2.016,0,3.456,1.44,3.456,3.313v6.768
		c5.184-6.191,12.959-10.08,21.744-10.08c10.944,0,20.304,6.048,25.199,14.977c5.04-8.929,14.544-14.977,25.344-14.977
		c15.84,0,28.655,12.816,28.655,28.656v38.447c0,1.728-1.44,3.312-3.456,3.312c-1.872,0-3.312-1.584-3.312-3.312V80.64z"/>
	<path fill="#FFFFFF" d="M128.547,87.263c0-19.583,15.264-35.423,34.271-35.423c18.144,0,32.543,14.399,33.983,32.831v0.145v0.432
		c0,1.872-1.584,3.168-3.456,3.168h-57.887c0.72,15.408,12.816,27.071,27.359,27.071c9.36,0,18-4.896,22.751-12.815
		c1.008-1.729,3.168-2.016,4.608-1.152c1.584,1.152,2.16,3.168,1.152,4.896c-6.048,9.647-16.56,15.983-28.512,15.983
		C143.811,122.398,128.547,106.559,128.547,87.263z M135.891,81.647h53.423c-2.304-13.248-13.536-22.896-26.496-22.896
		C149.571,58.752,138.483,68.256,135.891,81.647z"/>
	<path fill="#FFFFFF" d="M305.16,80.64c-0.288-11.952-9.792-21.888-21.888-21.888c-11.952,0-21.744,9.936-21.744,21.888v38.447
		v0.432c0,0.144-0.144,0.288-0.144,0.288v0.288c-0.288,0.863-1.008,1.439-1.728,1.872c-0.576,0.288-1.152,0.432-1.728,0.432h-0.432
		h-0.288c-0.144,0-0.288-0.144-0.288-0.144c-0.288,0-0.576-0.288-0.864-0.433c-0.144,0-0.288-0.144-0.432-0.288l-0.432-0.432
		c-0.144-0.145-0.144-0.288-0.288-0.288c0-0.144,0-0.144-0.144-0.288c0,0,0-0.144-0.144-0.288c0-0.144,0-0.288-0.144-0.432v-0.433
		v-0.287V80.64c0-11.952-9.648-21.888-21.744-21.888s-21.744,9.936-21.744,21.888v38.447c0,1.151-0.576,2.159-1.584,2.735
		c-0.144,0.145-0.576,0.433-0.864,0.433c-0.144,0.144-0.288,0.144-0.576,0.144h-0.432h-0.432c-1.296-0.144-2.448-1.296-2.88-2.592
		v-0.72V80.64v-1.152V55.296c0-1.872,1.584-3.313,3.312-3.313c2.016,0,3.456,1.44,3.456,3.313v6.768
		c5.184-6.191,12.959-10.08,21.744-10.08c10.944,0,20.304,6.048,25.199,14.977c5.04-8.929,14.544-14.977,25.344-14.977
		c15.84,0,28.655,12.816,28.655,28.656v38.447c0,1.728-1.44,3.312-3.456,3.312c-1.872,0-3.312-1.584-3.312-3.312V80.64z"/>
	<path fill="#FFFFFF" d="M324.413,88.703v-1.44v-1.439V25.057c0-1.872,1.584-3.456,3.456-3.456c2.016,0,3.6,1.584,3.6,3.456v40.606
		c6.192-8.352,15.983-13.823,27.071-13.823c19.008,0,34.127,15.84,34.127,35.423c0,19.296-15.12,35.136-34.127,35.136
		c-11.088,0-20.879-5.328-27.071-13.68v10.224c0,1.872-1.584,3.456-3.6,3.456c-1.872,0-3.456-1.584-3.456-3.456V88.703z
		 M331.469,87.263c0,15.552,12.24,28.08,27.071,28.08c14.976,0,27.071-12.528,27.071-28.08c0-15.695-12.096-28.367-27.071-28.367
		c-14.543,0-26.496,12.096-27.071,27.216V87.263z"/>
	<path fill="#FFFFFF" d="M397.146,87.263c0-19.583,15.264-35.423,34.271-35.423c18.144,0,32.544,14.399,33.983,32.831v0.145v0.432
		c0,1.872-1.584,3.168-3.456,3.168h-57.887c0.72,15.408,12.816,27.071,27.359,27.071c9.36,0,18-4.896,22.752-12.815
		c1.008-1.729,3.168-2.016,4.607-1.152c1.584,1.152,2.16,3.168,1.152,4.896c-6.048,9.647-16.56,15.983-28.512,15.983
		C412.41,122.398,397.146,106.559,397.146,87.263z M404.49,81.647h53.422c-2.304-13.248-13.535-22.896-26.495-22.896
		C418.169,58.752,407.082,68.256,404.49,81.647z"/>
	<path fill="#FFFFFF" d="M472.816,55.439c0-2.016,1.584-3.456,3.6-3.456c1.729,0,3.313,1.44,3.313,3.456v15.552
		c0.288-0.576,0.576-1.151,1.008-1.728c5.328-8.352,14.688-17.28,28.224-17.28c1.872,0,3.456,1.44,3.456,3.456
		c0,1.872-1.584,3.456-3.456,3.456c-9.216,0-15.552,5.184-20.447,11.52c-4.752,6.336-7.488,13.536-8.496,16.416
		c-0.288,0.576-0.288,0.864-0.288,1.152v30.959c0,2.016-1.584,3.456-3.313,3.456c-2.016,0-3.6-1.44-3.6-3.456V55.439z"/>
	<path fill="#FFFFFF" d="M512.129,107.711c1.151-1.44,3.312-1.729,4.896-0.433c4.896,3.601,12.672,8.208,21.6,8.208
		c5.472,0,10.224-1.728,13.392-4.319c3.456-2.305,5.328-5.473,5.328-8.641c-0.144-3.312-1.44-5.615-5.04-8.64
		c-3.023-2.304-8.063-4.031-14.976-5.184l-0.288-0.144c-6.336-1.152-11.951-2.593-15.983-5.473
		c-4.464-2.592-7.632-7.199-7.632-12.672c0-5.615,3.168-10.512,7.632-13.823c4.176-2.88,10.08-4.752,17.279-4.752
		c9.072,0,15.552,4.176,21.023,7.632c1.584,1.152,2.017,3.312,1.009,4.896c-1.009,1.584-3.168,2.017-4.752,1.009
		c-5.185-3.456-10.368-7.057-17.28-7.057c-5.76,0-10.367,1.584-13.392,4.032c-2.88,2.304-4.464,5.184-4.464,8.063
		s1.296,4.896,4.032,7.057c3.168,2.159,7.92,3.888,14.399,4.896h0.288c6.768,1.008,12.239,3.024,17.136,5.76
		c4.607,3.024,7.92,8.496,7.92,14.399c0,5.904-3.313,10.656-8.064,14.256c-4.896,3.601-10.655,5.616-17.567,5.616
		c-11.376-0.144-20.304-5.472-26.063-10.08C511.121,111.022,510.977,109.15,512.129,107.711z"/>
</g>
</svg>
