<?xml version="1.0" encoding="utf-8"?>
<!-- Generator: Adobe Illustrator 14.0.0, SVG Export Plug-In . SVG Version: 6.00 Build 43363)  -->
<!DOCTYPE svg PUBLIC "-//W3C//DTD SVG 1.1//EN" "http://www.w3.org/Graphics/SVG/1.1/DTD/svg11.dtd">
<svg version="1.1" id="Layer_1" xmlns="http://www.w3.org/2000/svg" xmlns:xlink="http://www.w3.org/1999/xlink" x="0px" y="0px"
	 width="367.066px" height="122.398px" viewBox="0 0 367.066 122.398" enable-background="new 0 0 367.066 122.398"
	 xml:space="preserve">
<g>
	<path fill="#FFFFFF" d="M114.334,80.64c-0.288-11.952-9.792-21.888-21.888-21.888c-11.952,0-21.744,9.936-21.744,21.888v38.447
		v0.432c0,0.144-0.144,0.288-0.144,0.288v0.288c-0.288,0.863-1.008,1.439-1.728,1.872c-0.576,0.288-1.152,0.432-1.728,0.432h-0.432
		h-0.288c-0.144,0-0.288-0.144-0.288-0.144c-0.288,0-0.576-0.288-0.864-0.433c-0.144,0-0.288-0.144-0.432-0.288l-0.432-0.432
		c-0.144-0.145-0.144-0.288-0.288-0.288c0-0.144,0-0.144-0.144-0.288c0,0,0-0.144-0.144-0.288c0-0.144,0-0.288-0.144-0.432v-0.433
		v-0.287V80.64c0-11.952-9.648-21.888-21.744-21.888S20.16,68.688,20.16,80.64v38.447c0,1.151-0.576,2.159-1.584,2.735
		c-0.144,0.145-0.576,0.433-0.864,0.433c-0.144,0.144-0.288,0.144-0.576,0.144h-0.432h-0.432c-1.296-0.144-2.448-1.296-2.88-2.592
		v-0.72V80.64v-1.152V55.296c0-1.872,1.584-3.313,3.312-3.313c2.016,0,3.456,1.44,3.456,3.313v6.768
		c5.184-6.191,12.959-10.08,21.744-10.08c10.944,0,20.304,6.048,25.199,14.977c5.04-8.929,14.544-14.977,25.344-14.977
		c15.84,0,28.655,12.816,28.655,28.656v38.447c0,1.728-1.44,3.312-3.456,3.312c-1.872,0-3.312-1.584-3.312-3.312V80.64z"/>
	<path fill="#FFFFFF" d="M128.547,87.263c0-19.583,15.264-35.423,34.271-35.423c18.144,0,32.543,14.399,33.983,32.831v0.145v0.432
		c0,1.872-1.584,3.168-3.456,3.168h-57.887c0.72,15.408,12.816,27.071,27.359,27.071c9.36,0,18-4.896,22.751-12.815
		c1.008-1.729,3.168-2.016,4.608-1.152c1.584,1.152,2.16,3.168,1.152,4.896c-6.048,9.647-16.56,15.983-28.512,15.983
		C143.811,122.398,128.547,106.559,128.547,87.263z M135.891,81.647h53.423c-2.304-13.248-13.536-22.896-26.496-22.896
		C149.571,58.752,138.483,68.256,135.891,81.647z"/>
	<path fill="#FFFFFF" d="M204.218,55.439c0-2.016,1.584-3.456,3.6-3.456c1.728,0,3.312,1.44,3.312,3.456v15.552
		c0.288-0.576,0.576-1.151,1.008-1.728c5.328-8.352,14.688-17.28,28.224-17.28c1.872,0,3.456,1.44,3.456,3.456
		c0,1.872-1.584,3.456-3.456,3.456c-9.216,0-15.552,5.184-20.448,11.52c-4.752,6.336-7.488,13.536-8.496,16.416
		c-0.288,0.576-0.288,0.864-0.288,1.152v30.959c0,2.016-1.584,3.456-3.312,3.456c-2.016,0-3.6-1.44-3.6-3.456V55.439z"/>
	<path fill="#FFFFFF" d="M239.67,86.976c0-19.584,16.127-35.136,36.287-35.136c8.352,0,16.271,2.88,22.463,7.775
		c1.44,1.009,1.728,3.168,0.432,4.752c-1.152,1.296-3.168,1.729-4.752,0.576c-5.04-4.031-11.375-6.336-18.144-6.336
		c-16.416,0-29.375,12.816-29.375,28.368c0,15.839,12.96,28.511,29.375,28.511c6.768,0,13.104-2.304,18.144-6.191
		c1.584-1.152,3.6-0.721,4.752,0.576c1.296,1.584,1.008,3.743-0.72,5.039c-5.904,4.608-13.823,7.488-22.175,7.488
		C255.798,122.398,239.67,106.847,239.67,86.976z"/>
	<path fill="#FFFFFF" d="M358.426,79.631c0-12.384-10.08-20.735-22.464-20.735c-12.24,0-22.319,8.352-22.319,20.735v39.312v0.432
		c0,0.288-0.144,0.433-0.144,0.576c-0.144,0.288-0.144,0.433-0.288,0.576c-0.432,0.864-1.152,1.44-2.16,1.729
		c0,0-0.144,0.144-0.288,0.144h-0.288h-0.432c-1.008,0-2.016-0.432-2.736-1.152c-0.288-0.432-0.432-0.72-0.576-1.151
		c-0.144-0.433-0.144-0.721-0.144-1.152V79.631v-1.151V25.057c0-1.872,1.584-3.456,3.456-3.456c2.016,0,3.6,1.584,3.6,3.456v37.151
		c5.328-6.336,13.392-10.368,22.319-10.368c16.272,0,29.52,11.52,29.52,27.791v39.312c0,1.872-1.584,3.456-3.6,3.456
		c-1.872,0-3.456-1.584-3.456-3.456V79.631z"/>
</g>
</svg>
