<?xml version="1.0" encoding="utf-8"?>
<!-- Generator: Adobe Illustrator 14.0.0, SVG Export Plug-In . SVG Version: 6.00 Build 43363)  -->
<!DOCTYPE svg PUBLIC "-//W3C//DTD SVG 1.1//EN" "http://www.w3.org/Graphics/SVG/1.1/DTD/svg11.dtd">
<svg version="1.1" id="Layer_1" xmlns="http://www.w3.org/2000/svg" xmlns:xlink="http://www.w3.org/1999/xlink" x="0px" y="0px"
	 width="354.58px" height="122.398px" viewBox="0 0 354.58 122.398" enable-background="new 0 0 354.58 122.398"
	 xml:space="preserve">
<g>
	<path fill="#FFFFFF" d="M114.334,80.64c-0.288-11.952-9.792-21.888-21.888-21.888c-11.952,0-21.744,9.936-21.744,21.888v38.447
		v0.432c0,0.144-0.144,0.288-0.144,0.288v0.288c-0.288,0.863-1.008,1.439-1.728,1.872c-0.576,0.288-1.152,0.432-1.728,0.432h-0.432
		h-0.288c-0.144,0-0.288-0.144-0.288-0.144c-0.288,0-0.576-0.288-0.864-0.433c-0.144,0-0.288-0.144-0.432-0.288l-0.432-0.432
		c-0.144-0.145-0.144-0.288-0.288-0.288c0-0.144,0-0.144-0.144-0.288c0,0,0-0.144-0.144-0.288c0-0.144,0-0.288-0.144-0.432v-0.433
		v-0.287V80.64c0-11.952-9.648-21.888-21.744-21.888S20.16,68.688,20.16,80.64v38.447c0,1.151-0.576,2.159-1.584,2.735
		c-0.144,0.145-0.576,0.433-0.864,0.433c-0.144,0.144-0.288,0.144-0.576,0.144h-0.432h-0.432c-1.296-0.144-2.448-1.296-2.88-2.592
		v-0.72V80.64v-1.152V55.296c0-1.872,1.584-3.313,3.312-3.313c2.016,0,3.456,1.44,3.456,3.313v6.768
		c5.184-6.191,12.959-10.08,21.744-10.08c10.944,0,20.304,6.048,25.199,14.977c5.04-8.929,14.544-14.977,25.344-14.977
		c15.84,0,28.655,12.816,28.655,28.656v38.447c0,1.728-1.44,3.312-3.456,3.312c-1.872,0-3.312-1.584-3.312-3.312V80.64z"/>
	<path fill="#FFFFFF" d="M131.988,55.151c0-2.016,1.584-3.455,3.456-3.455s3.456,1.439,3.456,3.455v38.447
		c0,12.096,9.647,21.744,21.6,21.888c12.096-0.144,21.887-9.792,21.887-21.888V55.151c0-2.016,1.728-3.455,3.456-3.455
		c2.016,0,3.6,1.439,3.6,3.455v38.447c0,15.84-12.816,28.8-28.943,28.8c-15.84,0-28.512-12.96-28.512-28.8V55.151z"/>
	<path fill="#FFFFFF" d="M201.366,107.711c1.152-1.44,3.312-1.729,4.896-0.433c4.896,3.601,12.672,8.208,21.6,8.208
		c5.472,0,10.224-1.728,13.392-4.319c3.456-2.305,5.328-5.473,5.328-8.641c-0.144-3.312-1.44-5.615-5.04-8.64
		c-3.024-2.304-8.063-4.031-14.976-5.184l-0.288-0.144c-6.336-1.152-11.952-2.593-15.983-5.473
		c-4.464-2.592-7.632-7.199-7.632-12.672c0-5.615,3.168-10.512,7.632-13.823c4.176-2.88,10.08-4.752,17.279-4.752
		c9.072,0,15.552,4.176,21.024,7.632c1.584,1.152,2.016,3.312,1.008,4.896s-3.168,2.017-4.752,1.009
		c-5.184-3.456-10.368-7.057-17.28-7.057c-5.76,0-10.368,1.584-13.392,4.032c-2.88,2.304-4.464,5.184-4.464,8.063
		s1.296,4.896,4.032,7.057c3.168,2.159,7.92,3.888,14.4,4.896h0.288c6.768,1.008,12.24,3.024,17.136,5.76
		c4.608,3.024,7.92,8.496,7.92,14.399c0,5.904-3.312,10.656-8.064,14.256c-4.896,3.601-10.656,5.616-17.568,5.616
		c-11.375-0.144-20.304-5.472-26.063-10.08C200.358,111.022,200.214,109.15,201.366,107.711z"/>
	<path fill="#FFFFFF" d="M267.706,32.256c0-1.872,1.584-3.456,3.456-3.456c2.016,0,3.6,1.584,3.6,3.456v3.313
		c0,2.016-1.584,3.744-3.6,3.744c-1.872,0-3.456-1.729-3.456-3.744V32.256z M267.706,55.296c0-2.017,1.584-3.456,3.456-3.456
		c2.016,0,3.6,1.439,3.6,3.456v63.646c0,1.872-1.584,3.456-3.6,3.456c-1.872,0-3.456-1.584-3.456-3.456V55.296z"/>
	<path fill="#FFFFFF" d="M287.908,86.976c0-19.584,16.127-35.136,36.287-35.136c8.352,0,16.271,2.88,22.463,7.775
		c1.44,1.009,1.728,3.168,0.432,4.752c-1.152,1.296-3.168,1.729-4.752,0.576c-5.04-4.031-11.375-6.336-18.144-6.336
		c-16.416,0-29.375,12.816-29.375,28.368c0,15.839,12.96,28.511,29.375,28.511c6.768,0,13.104-2.304,18.144-6.191
		c1.584-1.152,3.6-0.721,4.752,0.576c1.296,1.584,1.008,3.743-0.72,5.039c-5.904,4.608-13.823,7.488-22.175,7.488
		C304.035,122.398,287.908,106.847,287.908,86.976z"/>
</g>
</svg>
