<?xml version="1.0" encoding="utf-8"?>
<!-- Generator: Adobe Illustrator 14.0.0, SVG Export Plug-In . SVG Version: 6.00 Build 43363)  -->
<!DOCTYPE svg PUBLIC "-//W3C//DTD SVG 1.1//EN" "http://www.w3.org/Graphics/SVG/1.1/DTD/svg11.dtd">
<svg version="1.1" id="Layer_1" xmlns="http://www.w3.org/2000/svg" xmlns:xlink="http://www.w3.org/1999/xlink" x="0px" y="0px"
	 width="566.082px" height="122.398px" viewBox="0 0 566.082 122.398" enable-background="new 0 0 566.082 122.398"
	 xml:space="preserve">
<g>
	<path fill="#FFFFFF" d="M38.015,55.296c0,1.728-1.728,3.456-3.456,3.456h-9.072v51.406c0,3.456,3.456,5.185,5.184,5.185
		s3.6,1.872,3.6,3.6c0,1.729-1.872,3.456-3.6,3.456c-7.056,0-12.384-5.184-12.384-12.24V58.752H9.504
		c-3.456,0-3.456-1.729-3.456-3.456c0-1.729,0-3.456,3.456-3.456h8.784V25.633c0-1.729,1.728-3.457,3.456-3.457
		c1.872,0,3.744,1.729,3.744,3.457V51.84h9.072C36.287,51.84,38.015,53.567,38.015,55.296z"/>
	<path fill="#FFFFFF" d="M75.541,51.84c18.576,0,33.407,16.128,33.407,35.279s-14.832,35.279-33.407,35.279
		c-18.432,0-33.408-16.128-33.408-35.279S57.109,51.84,75.541,51.84z M75.541,115.486c14.399,0,26.495-12.672,26.495-28.367
		S89.94,58.607,75.541,58.607c-14.4,0-26.496,12.816-26.496,28.512S61.141,115.486,75.541,115.486z"/>
	<path fill="#FFFFFF" d="M116.625,55.151c0-2.016,1.584-3.455,3.456-3.455s3.456,1.439,3.456,3.455v38.447
		c0,12.096,9.647,21.744,21.6,21.888c12.096-0.144,21.887-9.792,21.887-21.888V55.151c0-2.016,1.728-3.455,3.456-3.455
		c2.016,0,3.6,1.439,3.6,3.455v38.447c0,15.84-12.816,28.8-28.943,28.8c-15.84,0-28.512-12.96-28.512-28.8V55.151z"/>
	<path fill="#FFFFFF" d="M187.773,55.439c0-2.016,1.584-3.456,3.6-3.456c1.728,0,3.312,1.44,3.312,3.456v15.552
		c0.288-0.576,0.576-1.151,1.008-1.728c5.328-8.352,14.688-17.28,28.224-17.28c1.872,0,3.456,1.44,3.456,3.456
		c0,1.872-1.584,3.456-3.456,3.456c-9.216,0-15.552,5.184-20.448,11.52c-4.752,6.336-7.488,13.536-8.496,16.416
		c-0.288,0.576-0.288,0.864-0.288,1.152v30.959c0,2.016-1.584,3.456-3.312,3.456c-2.016,0-3.6-1.44-3.6-3.456V55.439z"/>
	<path fill="#FFFFFF" d="M321.834,108.719c-6.192,8.352-15.984,13.68-27.072,13.68c-19.007,0-34.127-15.84-34.127-35.136
		c0-19.583,15.12-35.423,34.127-35.423c11.088,0,20.88,5.472,27.072,13.823V25.057c0-1.872,1.583-3.456,3.6-3.456
		c1.872,0,3.456,1.584,3.456,3.456v60.767v1.439v31.68c0,1.872-1.584,3.456-3.456,3.456c-2.016,0-3.6-1.584-3.6-3.456V108.719z
		 M321.834,88.415v-2.304c-0.576-15.12-12.528-27.216-27.072-27.216c-14.832,0-27.071,12.672-27.071,28.367
		c0,15.552,12.24,28.08,27.071,28.08C309.307,115.343,321.258,103.391,321.834,88.415z"/>
	<path fill="#FFFFFF" d="M403.74,55.296v63.646c0,1.872-1.584,3.456-3.456,3.456s-3.456-1.584-3.456-3.456v-10.512
		c-6.048,8.352-15.696,13.968-26.496,13.968c-18.575,0-33.407-15.983-33.407-35.279s14.832-35.279,33.407-35.279
		c10.8,0,20.448,5.472,26.496,13.823V55.296c0-2.017,1.584-3.456,3.456-3.456S403.74,53.279,403.74,55.296z M396.828,87.119
		c0-15.84-11.952-28.512-26.496-28.512c-14.399,0-26.495,12.672-26.495,28.512s12.096,28.367,26.495,28.367
		C384.876,115.486,396.828,102.959,396.828,87.119z"/>
	<path fill="#FFFFFF" d="M440.487,55.296c0,1.728-1.728,3.456-3.456,3.456h-9.071v51.406c0,3.456,3.456,5.185,5.184,5.185
		s3.6,1.872,3.6,3.6c0,1.729-1.872,3.456-3.6,3.456c-7.056,0-12.384-5.184-12.384-12.24V58.752h-8.784
		c-3.456,0-3.456-1.729-3.456-3.456c0-1.729,0-3.456,3.456-3.456h8.784V25.633c0-1.729,1.728-3.457,3.456-3.457
		c1.872,0,3.744,1.729,3.744,3.457V51.84h9.071C438.76,51.84,440.487,53.567,440.487,55.296z"/>
	<path fill="#FFFFFF" d="M443.827,87.263c0-19.583,15.264-35.423,34.271-35.423c18.144,0,32.544,14.399,33.983,32.831v0.145v0.432
		c0,1.872-1.584,3.168-3.456,3.168h-57.887c0.72,15.408,12.815,27.071,27.359,27.071c9.36,0,18-4.896,22.752-12.815
		c1.008-1.729,3.168-2.016,4.607-1.152c1.584,1.152,2.16,3.168,1.152,4.896c-6.048,9.647-16.56,15.983-28.512,15.983
		C459.091,122.398,443.827,106.559,443.827,87.263z M451.171,81.647h53.423c-2.304-13.248-13.535-22.896-26.495-22.896
		C464.851,58.752,453.764,68.256,451.171,81.647z"/>
	<path fill="#FFFFFF" d="M513.955,107.711c1.151-1.44,3.312-1.729,4.896-0.433c4.896,3.601,12.672,8.208,21.6,8.208
		c5.472,0,10.224-1.728,13.392-4.319c3.456-2.305,5.328-5.473,5.328-8.641c-0.144-3.312-1.44-5.615-5.04-8.64
		c-3.023-2.304-8.063-4.031-14.976-5.184l-0.288-0.144c-6.336-1.152-11.951-2.593-15.983-5.473
		c-4.464-2.592-7.632-7.199-7.632-12.672c0-5.615,3.168-10.512,7.632-13.823c4.176-2.88,10.08-4.752,17.279-4.752
		c9.072,0,15.552,4.176,21.023,7.632c1.584,1.152,2.017,3.312,1.009,4.896c-1.009,1.584-3.168,2.017-4.752,1.009
		c-5.185-3.456-10.368-7.057-17.28-7.057c-5.76,0-10.367,1.584-13.392,4.032c-2.88,2.304-4.464,5.184-4.464,8.063
		s1.296,4.896,4.032,7.057c3.168,2.159,7.92,3.888,14.399,4.896h0.288c6.768,1.008,12.239,3.024,17.136,5.76
		c4.607,3.024,7.92,8.496,7.92,14.399c0,5.904-3.313,10.656-8.064,14.256c-4.896,3.601-10.655,5.616-17.567,5.616
		c-11.376-0.144-20.304-5.472-26.063-10.08C512.947,111.022,512.803,109.15,513.955,107.711z"/>
</g>
</svg>
