<?xml version="1.0" encoding="utf-8"?>
<!-- Generator: Adobe Illustrator 14.0.0, SVG Export Plug-In . SVG Version: 6.00 Build 43363)  -->
<!DOCTYPE svg PUBLIC "-//W3C//DTD SVG 1.1//EN" "http://www.w3.org/Graphics/SVG/1.1/DTD/svg11.dtd">
<svg version="1.1" id="Layer_1" xmlns="http://www.w3.org/2000/svg" xmlns:xlink="http://www.w3.org/1999/xlink" x="0px" y="0px"
	 width="364.298px" height="122.398px" viewBox="0 0 364.298 122.398" enable-background="new 0 0 364.298 122.398"
	 xml:space="preserve">
<g>
	<path fill="#FFFFFF" d="M36,121.822c-0.432-0.432-0.864-0.864-1.152-1.584L8.352,57.168c-0.72-1.729,0.144-3.744,1.728-4.464
		c1.728-0.721,3.888,0.144,4.464,1.872l23.471,55.582l23.472-55.582c0.576-1.729,2.736-2.593,4.464-1.872
		c1.728,0.72,2.448,2.735,1.728,4.464l-26.352,62.494c-0.144,0.576-0.432,1.152-0.864,1.729c-0.576,0.72-1.584,1.008-2.304,1.008
		c-0.432,0-0.72,0-1.152-0.144c-0.144,0-0.144,0-0.288-0.145C36.431,122.11,36.287,121.967,36,121.822z"/>
	<path fill="#FFFFFF" d="M75.799,32.256c0-1.872,1.584-3.456,3.456-3.456c2.016,0,3.6,1.584,3.6,3.456v3.313
		c0,2.016-1.584,3.744-3.6,3.744c-1.872,0-3.456-1.729-3.456-3.744V32.256z M75.799,55.296c0-2.017,1.584-3.456,3.456-3.456
		c2.016,0,3.6,1.439,3.6,3.456v63.646c0,1.872-1.584,3.456-3.6,3.456c-1.872,0-3.456-1.584-3.456-3.456V55.296z"/>
	<path fill="#FFFFFF" d="M153.73,108.719c-6.192,8.352-15.984,13.68-27.072,13.68c-19.007,0-34.127-15.84-34.127-35.136
		c0-19.583,15.12-35.423,34.127-35.423c11.088,0,20.88,5.472,27.072,13.823V25.057c0-1.872,1.583-3.456,3.6-3.456
		c1.872,0,3.456,1.584,3.456,3.456v60.767v1.439v31.68c0,1.872-1.584,3.456-3.456,3.456c-2.016,0-3.6-1.584-3.6-3.456V108.719z
		 M153.73,88.415v-2.304c-0.576-15.12-12.528-27.216-27.072-27.216c-14.832,0-27.071,12.672-27.071,28.367
		c0,15.552,12.24,28.08,27.071,28.08C141.202,115.343,153.154,103.391,153.73,88.415z"/>
	<path fill="#FFFFFF" d="M169.713,87.263c0-19.583,15.264-35.423,34.271-35.423c18.144,0,32.543,14.399,33.983,32.831v0.145v0.432
		c0,1.872-1.584,3.168-3.456,3.168h-57.887c0.72,15.408,12.816,27.071,27.359,27.071c9.36,0,18-4.896,22.751-12.815
		c1.008-1.729,3.168-2.016,4.608-1.152c1.584,1.152,2.16,3.168,1.152,4.896c-6.048,9.647-16.56,15.983-28.512,15.983
		C184.977,122.398,169.713,106.559,169.713,87.263z M177.057,81.647h53.423c-2.304-13.248-13.536-22.896-26.496-22.896
		C190.737,58.752,179.649,68.256,177.057,81.647z"/>
	<path fill="#FFFFFF" d="M275.508,51.84c18.576,0,33.407,16.128,33.407,35.279s-14.832,35.279-33.407,35.279
		c-18.432,0-33.408-16.128-33.408-35.279S257.077,51.84,275.508,51.84z M275.508,115.486c14.399,0,26.495-12.672,26.495-28.367
		s-12.096-28.512-26.495-28.512c-14.4,0-26.496,12.816-26.496,28.512S261.108,115.486,275.508,115.486z"/>
	<path fill="#FFFFFF" d="M312.171,107.711c1.152-1.44,3.312-1.729,4.896-0.433c4.896,3.601,12.672,8.208,21.6,8.208
		c5.472,0,10.224-1.728,13.392-4.319c3.456-2.305,5.328-5.473,5.328-8.641c-0.144-3.312-1.44-5.615-5.04-8.64
		c-3.024-2.304-8.063-4.031-14.976-5.184l-0.288-0.144c-6.336-1.152-11.952-2.593-15.983-5.473
		c-4.464-2.592-7.632-7.199-7.632-12.672c0-5.615,3.168-10.512,7.632-13.823c4.176-2.88,10.08-4.752,17.279-4.752
		c9.072,0,15.552,4.176,21.024,7.632c1.584,1.152,2.016,3.312,1.008,4.896s-3.168,2.017-4.752,1.009
		c-5.184-3.456-10.368-7.057-17.28-7.057c-5.76,0-10.368,1.584-13.392,4.032c-2.88,2.304-4.464,5.184-4.464,8.063
		s1.296,4.896,4.032,7.057c3.168,2.159,7.92,3.888,14.4,4.896h0.288c6.768,1.008,12.24,3.024,17.136,5.76
		c4.608,3.024,7.92,8.496,7.92,14.399c0,5.904-3.312,10.656-8.064,14.256c-4.896,3.601-10.656,5.616-17.568,5.616
		c-11.375-0.144-20.304-5.472-26.063-10.08C311.164,111.022,311.02,109.15,312.171,107.711z"/>
</g>
</svg>
